<?xml version="1.0" standalone="no"?><svg xmlns="http://www.w3.org/2000/svg" viewBox="0 0 1440 320"><path fill="#0099ff" fill-opacity="1" d="M0,288L16,245.3C32,203,64,117,96,112C128,107,160,181,192,208C224,235,256,213,288,192C320,171,352,149,384,144C416,139,448,149,480,160C512,171,544,181,576,192C608,203,640,213,672,224C704,235,736,245,768,213.3C800,181,832,107,864,69.3C896,32,928,32,960,74.7C992,117,1024,203,1056,213.3C1088,224,1120,160,1152,122.7C1184,85,1216,75,1248,74.7C1280,75,1312,85,1344,117.3C1376,149,1408,203,1424,229.3L1440,256L1440,320L1424,320C1408,320,1376,320,1344,320C1312,320,1280,320,1248,320C1216,320,1184,320,1152,320C1120,320,1088,320,1056,320C1024,320,992,320,960,320C928,320,896,320,864,320C832,320,800,320,768,320C736,320,704,320,672,320C640,320,608,320,576,320C544,320,512,320,480,320C448,320,416,320,384,320C352,320,320,320,288,320C256,320,224,320,192,320C160,320,128,320,96,320C64,320,32,320,16,320L0,320Z"></path></svg>